G04 #@! TF.GenerationSoftware,KiCad,Pcbnew,(5.1.9)-1*
G04 #@! TF.CreationDate,2021-04-19T00:56:38+02:00*
G04 #@! TF.ProjectId,geiger,67656967-6572-42e6-9b69-6361645f7063,rev?*
G04 #@! TF.SameCoordinates,Original*
G04 #@! TF.FileFunction,Soldermask,Bot*
G04 #@! TF.FilePolarity,Negative*
%FSLAX46Y46*%
G04 Gerber Fmt 4.6, Leading zero omitted, Abs format (unit mm)*
G04 Created by KiCad (PCBNEW (5.1.9)-1) date 2021-04-19 00:56:38*
%MOMM*%
%LPD*%
G01*
G04 APERTURE LIST*
%ADD10O,1.700000X1.700000*%
%ADD11R,1.700000X1.700000*%
%ADD12O,1.200000X2.000000*%
%ADD13R,1.200000X2.000000*%
%ADD14O,1.600000X1.600000*%
%ADD15R,1.600000X1.600000*%
%ADD16R,1.500000X1.050000*%
%ADD17O,1.500000X1.050000*%
%ADD18O,1.905000X2.000000*%
%ADD19R,1.905000X2.000000*%
%ADD20O,4.500000X2.500000*%
%ADD21R,4.500000X2.500000*%
%ADD22C,1.600000*%
%ADD23C,2.600000*%
%ADD24C,1.800000*%
%ADD25R,1.800000X1.800000*%
%ADD26O,2.600000X2.600000*%
%ADD27R,2.600000X2.600000*%
%ADD28C,2.400000*%
G04 APERTURE END LIST*
D10*
X62992000Y-137033000D03*
D11*
X60452000Y-137033000D03*
D12*
X129540000Y-163915000D03*
X129540000Y-139615000D03*
X127000000Y-163915000D03*
X127000000Y-139615000D03*
X124460000Y-163915000D03*
X124460000Y-139615000D03*
X121920000Y-163915000D03*
X121920000Y-139615000D03*
X119380000Y-163915000D03*
X119380000Y-139615000D03*
X116840000Y-163915000D03*
X116840000Y-139615000D03*
X114300000Y-163915000D03*
X114300000Y-139615000D03*
X111760000Y-163915000D03*
X111760000Y-139615000D03*
X109220000Y-163915000D03*
X109220000Y-139615000D03*
X106680000Y-163915000D03*
X106680000Y-139615000D03*
X104140000Y-163915000D03*
X104140000Y-139615000D03*
X101600000Y-163915000D03*
X101600000Y-139615000D03*
X99060000Y-163915000D03*
X99060000Y-139615000D03*
X96520000Y-163915000D03*
X96520000Y-139615000D03*
X93980000Y-163915000D03*
X93980000Y-139615000D03*
X91440000Y-163915000D03*
X91440000Y-139615000D03*
X88900000Y-163915000D03*
X88900000Y-139615000D03*
X86360000Y-163915000D03*
X86360000Y-139615000D03*
D13*
X83820000Y-163915000D03*
D12*
X83820000Y-139615000D03*
X89982000Y-178032000D03*
X89982000Y-194332000D03*
X129982000Y-178032000D03*
X129982000Y-194332000D03*
D14*
X62738000Y-158496000D03*
X55118000Y-166116000D03*
X62738000Y-161036000D03*
X55118000Y-163576000D03*
X62738000Y-163576000D03*
X55118000Y-161036000D03*
X62738000Y-166116000D03*
D15*
X55118000Y-158496000D03*
D16*
X83820000Y-187706000D03*
D17*
X83820000Y-185166000D03*
X83820000Y-186436000D03*
D14*
X60452000Y-194056000D03*
X52832000Y-186436000D03*
X57912000Y-194056000D03*
X55372000Y-186436000D03*
X55372000Y-194056000D03*
X57912000Y-186436000D03*
X52832000Y-194056000D03*
D15*
X60452000Y-186436000D03*
D16*
X66675000Y-146558000D03*
D17*
X66675000Y-149098000D03*
X66675000Y-147828000D03*
D18*
X53340000Y-174498000D03*
X55880000Y-174498000D03*
D19*
X58420000Y-174498000D03*
D20*
X46228000Y-186668000D03*
X46228000Y-181218000D03*
D21*
X46228000Y-175768000D03*
D10*
X27686000Y-177800000D03*
D11*
X27686000Y-180340000D03*
D14*
X74295000Y-141351000D03*
D22*
X66675000Y-141351000D03*
D14*
X57023000Y-142748000D03*
D22*
X57023000Y-150368000D03*
D14*
X44196000Y-165862000D03*
D22*
X51816000Y-165862000D03*
D14*
X51816000Y-162306000D03*
D22*
X44196000Y-162306000D03*
D14*
X44196000Y-158750000D03*
D22*
X51816000Y-158750000D03*
D14*
X51816000Y-155194000D03*
D22*
X44196000Y-155194000D03*
D14*
X44196000Y-137414000D03*
D22*
X51816000Y-137414000D03*
D14*
X51816000Y-140970000D03*
D22*
X44196000Y-140970000D03*
D14*
X44196000Y-144526000D03*
D22*
X51816000Y-144526000D03*
D14*
X51816000Y-148082000D03*
D22*
X44196000Y-148082000D03*
D14*
X44196000Y-151638000D03*
D22*
X51816000Y-151638000D03*
D14*
X27432000Y-158750000D03*
D22*
X27432000Y-166370000D03*
D14*
X68326000Y-165100000D03*
D22*
X68326000Y-157480000D03*
D14*
X77978000Y-186436000D03*
D22*
X77978000Y-194056000D03*
D14*
X68326000Y-181102000D03*
D22*
X75946000Y-181102000D03*
D14*
X68326000Y-177546000D03*
D22*
X68326000Y-169926000D03*
D14*
X71628000Y-186436000D03*
D22*
X71628000Y-194056000D03*
D14*
X68072000Y-186436000D03*
D22*
X68072000Y-194056000D03*
D14*
X64516000Y-186436000D03*
D22*
X64516000Y-194056000D03*
D23*
X38020000Y-163830000D03*
X33020000Y-163830000D03*
D24*
X27432000Y-172974000D03*
D25*
X27432000Y-170434000D03*
D26*
X38100000Y-187960000D03*
D27*
X38100000Y-172720000D03*
D14*
X30734000Y-154686000D03*
D15*
X38354000Y-154686000D03*
D28*
X23100000Y-146812000D03*
X38100000Y-146812000D03*
D22*
X57912000Y-180888000D03*
X57912000Y-183388000D03*
X46228000Y-191556000D03*
X46228000Y-194056000D03*
D10*
X27686000Y-187960000D03*
D11*
X27686000Y-185420000D03*
M02*
