M48
INCH,TZ
T1C0.0295
T2C0.0315
T3C0.0354
T4C0.0394
T5C0.0433
T6C0.0472
T7C0.0512
T8C0.0591
%
G90
G05
T1
X26250Y-57700
X26250Y-58200
X26250Y-58700
X33000Y-72900
X33000Y-73400
X33000Y-73900
T2
X10800Y-62500
X10800Y-65500
X12100Y-60900
X15100Y-60900
X17400Y-54100
X17400Y-55500
X17400Y-56900
X17400Y-58300
X17400Y-59700
X17400Y-61100
X17400Y-62500
X17400Y-63900
X17400Y-65300
X18200Y-75416
X18200Y-76400
X20400Y-54100
X20400Y-55500
X20400Y-56900
X20400Y-58300
X20400Y-59700
X20400Y-61100
X20400Y-62500
X20400Y-63900
X20400Y-65300
X20800Y-73400
X20800Y-76400
X21700Y-62400
X21700Y-63400
X21700Y-64400
X21700Y-65400
X21800Y-73400
X21800Y-76400
X22450Y-56200
X22450Y-59200
X22800Y-71216
X22800Y-72200
X22800Y-73400
X22800Y-76400
X23800Y-73400
X23800Y-76400
X24700Y-62400
X24700Y-63400
X24700Y-64400
X24700Y-65400
X25400Y-73400
X25400Y-76400
X26250Y-55650
X26800Y-73400
X26800Y-76400
X26900Y-62000
X26900Y-65000
X26900Y-66900
X26900Y-69900
X26900Y-71300
X28200Y-73400
X28200Y-76400
X29250Y-55650
X29900Y-71300
X30700Y-73400
X30700Y-76400
X33000Y-54967
X33000Y-64533
X34000Y-54967
X34000Y-64533
X35000Y-54967
X35000Y-64533
X35426Y-70091
X35426Y-76509
X36000Y-54967
X36000Y-64533
X37000Y-54967
X37000Y-64533
X38000Y-54967
X38000Y-64533
X39000Y-54967
X39000Y-64533
X40000Y-54967
X40000Y-64533
X41000Y-54967
X41000Y-64533
X42000Y-54967
X42000Y-64533
X43000Y-54967
X43000Y-64533
X44000Y-54967
X44000Y-64533
X45000Y-54967
X45000Y-64533
X46000Y-54967
X46000Y-64533
X47000Y-54967
X47000Y-64533
X48000Y-54967
X48000Y-64533
X49000Y-54967
X49000Y-64533
X50000Y-54967
X50000Y-64533
X51000Y-54967
X51000Y-64533
X51174Y-70091
X51174Y-76509
T3
X10800Y-67100
X10800Y-68100
T4
X10900Y-70000
X10900Y-71000
X10900Y-73000
X10900Y-74000
X23800Y-53950
X24800Y-53950
T5
X21000Y-68700
X22000Y-68700
X23000Y-68700
T6
X9094Y-57800
X15000Y-57800
T7
X13000Y-64500
X14969Y-64500
X15000Y-68000
X15000Y-74000
T8
X18200Y-69200
X18200Y-71346
X18200Y-73491
T0
M30
